<!--?xml version="1.0" encoding="utf-8"?-->
<!-- Generator: Adobe Illustrator 16.0.0, SVG Export Plug-In . SVG Version: 6.00 Build 0)  -->

<svg version="1.1" id="Capa_1" data-name="Capa 1" xmlns="http://www.w3.org/2000/svg" viewBox="0 0 529.49 529.33">
	<path stroke="#000" stroke-width="2" d="M32.88,420.79c.24-141.67,112.46-264.6,264.87-264.51,151,.09,264.58,121.25,264.62,265.31,0,146.29-119.62,264.59-265.91,264C150.78,685,32.4,566.11,32.88,420.79ZM297.4,182.64c-131.41.08-237.84,106.51-238,238-.17,131.84,106.76,238.89,238.41,238.67s238.11-106.88,238-238.55S429.05,182.56,297.4,182.64Z" transform="translate(-32.87 -156.28)" style="fill:none" class="upTvIzVB_0"></path>
	<path stroke="#000" stroke-width="2" d="M146.57,326c-1.08.88-2,1.56-2.87,2.36-6.16,5.85-12.19,11.84-18.5,17.53-2.39,2.16-2.48,3.3-.09,5.63,20.36,19.92,40.52,40,60.88,60,2.43,2.38,2.6,3.49.06,6-19.65,19.22-39.08,38.66-58.71,57.9-2.4,2.35-2.79,3.59-.1,6,6.54,5.93,12.62,12.35,19.16,18.27,2.45,2.22,2.09,3.26-.13,5.23-4.73,4.2-9.34,8.56-13.69,13.15-2.22,2.35-3.34,1.93-5.41-.19q-18.33-18.77-37-37.21c-2.48-2.44-2.55-3.62,0-6.11,18.94-18.52,37.62-37.29,56.58-55.79,2.87-2.8,3.25-4.11.16-7.13-19.66-19.2-39-38.71-58.64-58-2.75-2.69-2.87-4.07,0-6.82,12.6-12.12,25-24.48,37.33-36.87,2.12-2.13,3.34-2.79,5.67-.11,4.14,4.77,8.76,9.13,13.16,13.67C145.07,324.22,145.65,325,146.57,326Z" transform="translate(-32.87 -156.28)" style="fill:none" class="upTvIzVB_1"></path>
	<path stroke="#000" stroke-width="2" d="M254,518.19c-.78-.65-1.87-1.44-2.82-2.37-12-11.77-24-23.62-36.07-35.29-2.12-2-2.59-3.08-.12-5.26,5-4.42,9.65-9.18,14.32-13.94,1.66-1.69,2.56-2.26,4.61-.19Q261.7,489.21,289.77,517c2.59,2.55,1.34,3.57-.46,5.34-19.67,19.43-39.25,39-59,58.32-2.39,2.34-2.9,3.54-.09,6C237,592.57,243.31,599,250,605c2.09,1.89,2.28,3,.13,5-5.37,5-10.57,10.16-15.68,15.4-1.56,1.6-2.37,1.53-3.85-.08-12.75-13.84-25.5-27.68-38.44-41.34-2.58-2.72.07-3.41,1.19-4.52q28.88-28.7,57.85-57.32C252.19,521.12,253.67,520.41,254,518.19Z" transform="translate(-32.87 -156.28)" style="fill:none" class="upTvIzVB_2"></path>
	<path stroke="#000" stroke-width="2" d="M234.15,204.43c.66.6,1.28,1.1,1.83,1.67,4.87,5,9.64,10.14,14.63,15,1.91,1.87,1.29,2.79-.33,4.29-6.37,5.87-12.52,12-19,17.76-2.35,2.11-2.6,3.18-.13,5.58,19.7,19.17,39.17,38.57,58.86,57.74,2.39,2.32,2.28,3.39,0,5.64q-28.12,27.71-55.94,55.72c-2.49,2.51-3.81,2.52-6.09-.1a155.46,155.46,0,0,0-12.14-12.57c-2.48-2.27-1.78-3.35.27-5.31,12.15-11.64,24.08-23.5,36.26-35.1,2.65-2.52,3.15-3.84.18-6.71-19.89-19.21-39.51-38.69-59.32-58-2-2-2.59-3-.19-5.27,12.93-12.5,25.64-25.24,38.42-37.89C232.32,206.1,233.19,205.33,234.15,204.43Z" transform="translate(-32.87 -156.28)" style="fill:none" class="upTvIzVB_3"></path>
	<path stroke="#000" stroke-width="2" d="M396.67,415.33c-.85.89-1.49,1.61-2.18,2.29q-27.51,27.23-55,54.5c-2.58,2.58-4.21,3.25-7,.07a154.76,154.76,0,0,0-13.4-13.43c-2.57-2.31-2.18-3.57.09-5.75,12-11.52,23.73-23.34,35.85-34.74,3.29-3.09,2.38-4.66-.28-7.19-11.92-11.37-23.65-22.94-35.58-34.31-2.27-2.16-2.72-3.45-.07-5.73,5.16-4.45,10-9.23,14.9-14,1.57-1.54,2.52-2,4.35-.18q28.16,28.36,56.48,56.56C395.44,414,396,414.6,396.67,415.33Z" transform="translate(-32.87 -156.28)" style="fill:none" class="upTvIzVB_4"></path>
	<path stroke="#000" stroke-width="2" d="M487.39,323.69C472,338.83,457,353.6,442.07,368.47c-1.55,1.54-2.34,1.61-3.88,0-4.89-5-9.9-9.85-15-14.63-1.65-1.56-2-2.52-.15-4.31,12.41-12.27,24.21-25.15,37.6-36.43,3.08-2.59,5.63-2.92,8.84-.86C475.19,315.95,480.92,319.57,487.39,323.69Z" transform="translate(-32.87 -156.28)" style="fill:none" class="upTvIzVB_5"></path>
	<path stroke="#000" stroke-width="2" d="M364.31,202.7a11.32,11.32,0,0,0,1.35,2.48c4.54,4.65,9.05,9.32,13.75,13.81,1.8,1.72,1.57,2.67-.11,4.31q-20.87,20.46-41.54,41.14c-1.75,1.75-2.61,1.72-4.27,0-4.48-4.7-9.13-9.24-13.82-13.72-1.47-1.4-1.78-2.16-.11-3.81C333.71,233,347.75,219,361.82,205.05,362.38,204.5,363,204,364.31,202.7Z" transform="translate(-32.87 -156.28)" style="fill:none" class="upTvIzVB_6"></path>
	<path stroke="#000" stroke-width="2" d="M422.13,477.05c5.94-5.8,11.25-10.85,16.38-16.07,1.49-1.52,2.25-1.68,3.85-.07q20.51,20.84,41.23,41.47c1.43,1.43,1.38,2.18-.07,3.52q-7.34,6.78-14.43,13.83c-1.34,1.32-2.12,1.47-3.57,0C451.21,505.59,436.82,491.49,422.13,477.05Z" transform="translate(-32.87 -156.28)" style="fill:none" class="upTvIzVB_7"></path>
	<path stroke="#000" stroke-width="2" d="M361.28,624.26c-.72-.64-1.46-1.25-2.13-1.92-12.94-13-25.82-26-38.85-38.85-1.87-1.85-1.48-2.68.23-4.21,4.84-4.33,9.62-8.73,14.19-13.34,1.88-1.9,2.76-1.28,4.3.28,12.74,12.92,25.57,25.76,38.35,38.65.91.92,2.75,1.66.79,3.49-5.23,4.88-10.34,9.9-15.51,14.85C362.3,623.54,361.87,623.8,361.28,624.26Z" transform="translate(-32.87 -156.28)" style="fill:none" class="upTvIzVB_8"></path>
<style>.upTvIzVB_0{stroke-dasharray:3162 3164;stroke-dashoffset:3163;animation:upTvIzVB_draw 2000ms ease-in 0ms forwards;}.upTvIzVB_1{stroke-dasharray:598 600;stroke-dashoffset:599;animation:upTvIzVB_draw 2000ms ease-in 125ms forwards;}.upTvIzVB_2{stroke-dasharray:471 473;stroke-dashoffset:472;animation:upTvIzVB_draw 2000ms ease-in 250ms forwards;}.upTvIzVB_3{stroke-dasharray:467 469;stroke-dashoffset:468;animation:upTvIzVB_draw 2000ms ease-in 375ms forwards;}.upTvIzVB_4{stroke-dasharray:339 341;stroke-dashoffset:340;animation:upTvIzVB_draw 2000ms ease-in 500ms forwards;}.upTvIzVB_5{stroke-dasharray:178 180;stroke-dashoffset:179;animation:upTvIzVB_draw 2000ms ease-in 625ms forwards;}.upTvIzVB_6{stroke-dasharray:179 181;stroke-dashoffset:180;animation:upTvIzVB_draw 2000ms ease-in 750ms forwards;}.upTvIzVB_7{stroke-dasharray:176 178;stroke-dashoffset:177;animation:upTvIzVB_draw 2000ms ease-in 875ms forwards;}.upTvIzVB_8{stroke-dasharray:170 172;stroke-dashoffset:171;animation:upTvIzVB_draw 2000ms ease-in 1000ms forwards;}@keyframes upTvIzVB_draw{100%{stroke-dashoffset:0;}}@keyframes upTvIzVB_fade{0%{stroke-opacity:1;}94.44444444444444%{stroke-opacity:1;}100%{stroke-opacity:0;}}</style></svg>